<svg width="840" height="735" viewBox="0 0 840 735" fill="none" xmlns="http://www.w3.org/2000/svg">
<path fill-rule="evenodd" clip-rule="evenodd" d="M147.743 -183.885C127.051 -183.885 106.436 -179.359 87.1259 -170.359C52.3539 -154.15 25.9782 -125.377 12.8554 -89.34C-14.2327 -14.9492 24.2777 67.6015 98.7023 94.678L584.104 271.274L869.49 167.446L870.206 169.411L869.49 167.446C882.573 162.686 893.018 153.119 898.902 140.505C904.784 127.893 905.404 113.745 900.64 100.667C895.362 86.1671 884.008 74.8166 869.488 69.5273L196.954 -175.152C180.924 -180.984 164.308 -183.885 147.743 -183.885ZM584.104 275.724L98.7023 452.32C24.2777 479.397 -14.2327 561.947 12.8554 636.34C39.9452 710.734 122.533 749.232 196.954 722.15L869.49 477.471C884.008 472.182 895.362 460.831 900.64 446.331C905.404 433.253 904.784 419.107 898.902 406.493C893.018 393.88 882.573 384.312 869.49 379.552L584.104 275.724ZM147.976 735C87.5729 735 30.7492 697.71 8.92357 637.771C-18.954 561.211 20.6781 476.254 97.2707 448.388L577.986 273.499L97.2707 98.6081C20.6781 70.7443 -18.954 -14.2114 8.92357 -90.7711C36.8011 -167.331 121.793 -206.944 198.386 -179.082L870.922 65.5971C886.606 71.3126 898.871 83.5739 904.574 99.2364C909.718 113.363 909.052 128.648 902.695 142.273C896.338 155.899 885.055 166.234 870.922 171.376L590.221 273.499L870.922 375.62C900.097 386.238 915.193 418.599 904.574 447.762C898.871 463.424 886.606 475.686 870.923 481.401L198.386 726.082C181.758 732.131 164.725 735 147.976 735Z" fill="#EBEFEE"/>
</svg>
