<svg width="132" height="104" viewBox="0 0 132 104" fill="none" xmlns="http://www.w3.org/2000/svg">
<path d="M124.026 59.1802C124.024 35.2084 109.39 13.6466 87.0588 4.71406C64.7282 -4.21848 39.1888 1.27328 22.5451 18.5865C5.90144 35.8997 1.49815 61.5552 11.4222 83.3935H118.782C122.246 75.7881 124.034 67.5318 124.026 59.1802Z" fill="#FEEAEE"/>
<path fill-rule="evenodd" clip-rule="evenodd" d="M0.62085 83.0774C0.62085 82.4498 1.12962 81.941 1.75721 81.941H5.43997C6.06757 81.941 6.57634 82.4498 6.57634 83.0774C6.57634 83.705 6.06757 84.2138 5.43997 84.2138H1.75721C1.12962 84.2138 0.62085 83.705 0.62085 83.0774ZM7.13194 83.0774C7.13194 82.4498 7.64071 81.941 8.26831 81.941H123.17C123.798 81.941 124.307 82.4498 124.307 83.0774C124.307 83.705 123.798 84.2138 123.17 84.2138H8.26831C7.64071 84.2138 7.13194 83.705 7.13194 83.0774ZM126.117 81.941C125.489 81.941 124.98 82.4498 124.98 83.0774C124.98 83.705 125.489 84.2138 126.117 84.2138H129.799C130.427 84.2138 130.936 83.705 130.936 83.0774C130.936 82.4498 130.427 81.941 129.799 81.941H126.117Z" fill="#FDCBD3"/>
<path d="M64.7323 104.001C84.8682 104.001 101.192 102.522 101.192 100.697C101.192 98.8726 84.8682 97.3934 64.7323 97.3934C44.5963 97.3934 28.2729 98.8726 28.2729 100.697C28.2729 102.522 44.5963 104.001 64.7323 104.001Z" fill="#FEEAEE"/>
<path fill-rule="evenodd" clip-rule="evenodd" d="M45.5018 35.6132V51.4757C45.5019 61.7392 51.8226 70.9429 61.4018 74.6278L63.5705 75.4611C65.0148 76.0167 66.6138 76.0167 68.058 75.4611L70.2268 74.6278C79.806 70.9429 86.1267 61.7392 86.1268 51.4757V35.6132C86.1349 34.3939 85.4271 33.2833 84.3185 32.7757C78.4848 30.2294 72.1792 28.9438 65.8143 29.0028C59.4494 28.9438 53.1438 30.2294 47.3101 32.7757C46.2015 33.2833 45.4936 34.3939 45.5018 35.6132Z" stroke="#E16E75" stroke-width="3" stroke-linecap="round" stroke-linejoin="round"/>
<path d="M65.8142 57.5653C66.2457 57.5653 66.5955 57.9151 66.5955 58.3466C66.5955 58.778 66.2457 59.1278 65.8142 59.1278C65.3827 59.1278 65.033 58.778 65.033 58.3466C65.033 57.9151 65.3827 57.5653 65.8142 57.5653" stroke="#E16E75" stroke-width="3" stroke-linecap="round" stroke-linejoin="round"/>
<path d="M65.8142 50.8778V41.5028" stroke="#E16E75" stroke-width="3" stroke-linecap="round" stroke-linejoin="round"/>
</svg>
